<?xml version="1.0" standalone="no"?>
<!DOCTYPE svg PUBLIC "-//W3C//DTD SVG 20010904//EN"
 "http://www.w3.org/TR/2001/REC-SVG-20010904/DTD/svg10.dtd">
<svg version="1.0" xmlns="http://www.w3.org/2000/svg"
 width="110.000000pt" height="110.000000pt" viewBox="0 0 110.000000 110.000000"
 preserveAspectRatio="xMidYMid meet">
<metadata>
Created by potrace 1.14, written by Peter Selinger 2001-2017
</metadata>
<g transform="translate(0.000000,110.000000) scale(0.100000,-0.100000)"
fill="#000000" stroke="none">
<path d="M249 1011 c-9 -3 -69 -68 -133 -145 -94 -112 -115 -142 -110 -160 6
-17 62 -89 119 -151 6 -7 28 -33 50 -60 59 -70 64 -75 90 -75 31 0 50 32 35
59 -5 11 -51 68 -100 126 -54 63 -87 111 -83 118 4 7 48 61 97 121 50 59 90
114 90 122 -1 8 -2 18 -3 24 -2 15 -34 28 -52 21z"/>
<path d="M807 1003 c-21 -20 0 -60 88 -167 52 -63 95 -117 95 -120 0 -4 -11
-19 -24 -34 -161 -186 -193 -239 -150 -256 36 -14 54 -2 127 87 42 50 88 106
103 122 62 70 64 87 22 136 -13 15 -63 74 -113 133 -71 85 -95 106 -116 106
-14 0 -29 -3 -32 -7z"/>
<path d="M374 805 c-127 -54 -82 -246 55 -233 l37 3 -2 -60 c0 -33 3 -68 8
-77 11 -23 55 -23 66 0 5 9 8 78 7 153 -1 111 -4 141 -18 162 -34 53 -99 75
-153 52z m85 -70 c2 -2 4 -20 6 -39 2 -42 -13 -59 -52 -54 -49 6 -62 71 -19
101 10 6 55 1 65 -8z"/>
<path d="M630 802 c-62 -30 -71 -59 -68 -221 3 -124 5 -145 20 -155 34 -21 52
4 58 80 l5 69 49 1 c42 0 53 5 77 32 92 103 -17 254 -141 194z m90 -72 c46
-46 -2 -108 -64 -84 -23 9 -22 80 2 93 25 15 40 13 62 -9z"/>
<path d="M405 324 c-17 -17 -18 -24 -7 -42 7 -9 46 -13 150 -14 77 0 145 3
151 6 17 11 13 44 -6 55 -10 5 -75 9 -145 10 -102 0 -130 -3 -143 -15z"/>
<path d="M406 234 c-18 -18 -19 -24 -7 -43 7 -10 41 -13 150 -13 78 1 146 4
151 7 14 8 13 38 -2 53 -8 8 -55 12 -144 12 -107 0 -136 -3 -148 -16z"/>
<path d="M405 143 c-17 -17 -18 -23 -6 -41 6 -11 42 -14 149 -14 78 0 146 3
151 7 18 10 13 53 -6 59 -10 3 -76 5 -146 5 -98 -1 -131 -5 -142 -16z"/>
</g>
</svg>
